<svg width="347" height="422" viewBox="0 0 347 422" fill="none" xmlns="http://www.w3.org/2000/svg">
<path opacity="0.2" d="M335.714 190.16L173.126 -6.74394H172.715C165.773 -14.8461 156.498 -20.624 146.147 -23.2934C135.797 -25.9628 124.873 -25.3944 114.858 -21.6654C104.844 -17.9364 96.2226 -11.2273 90.1658 -2.44873C84.109 6.3298 80.9097 16.7526 81.0019 27.4051V410.353C80.9687 420.604 83.9747 430.638 89.6432 439.193C95.3117 447.749 103.39 454.446 112.865 458.443C122.339 462.441 132.787 463.562 142.898 461.665C153.009 459.768 162.333 454.938 169.699 447.78H170.384L335.714 247.53C342.969 239.727 347 229.482 347 218.845C347 208.208 342.969 197.963 335.714 190.16Z" fill="#19B89C"/>
<path opacity="0.2" d="M265.508 184.071L71.1355 -51.2431H70.6439C62.3454 -60.9258 51.2568 -67.8308 38.8832 -71.0209C26.5096 -74.211 13.4501 -73.5318 1.47734 -69.0753C-10.4954 -64.6188 -20.8016 -56.601 -28.0424 -46.11C-35.2833 -35.619 -39.108 -23.163 -38.9977 -10.4325V447.217C-39.0374 459.469 -35.4435 471.459 -28.6669 481.684C-21.8902 491.908 -12.2327 499.911 -0.906364 504.689C10.42 509.467 22.9106 510.806 34.9983 508.539C47.086 506.272 58.2322 500.5 67.0383 491.946H67.8578L265.508 252.633C274.181 243.307 279 231.064 279 218.352C279 205.639 274.181 193.396 265.508 184.071Z" fill="#238FCC"/>
</svg>
