<svg width="148" height="40" viewBox="0 0 148 40" fill="none" xmlns="http://www.w3.org/2000/svg">
<g clip-path="url(#clip0)">
<path d="M38.7601 0.406982H42.6566V39.5983H38.7601V0.406982ZM41.4473 0.406982H55.6411V4.01656H41.4419L41.4473 0.406982ZM41.4473 18.3317H54.2921V21.9413H41.4473V18.3317ZM41.4473 36.0048H55.6411V39.6144H41.4419L41.4473 36.0048Z" fill="#254063"/>
<path d="M63.9176 38.8164C62.5406 38.0203 61.4443 36.8194 60.779 35.3781C60.0193 33.6798 59.6519 31.8332 59.7041 29.9745V10.0575C59.6505 8.19002 60.0178 6.33434 60.779 4.62704C61.4435 3.18871 62.5354 1.98851 63.9069 1.18883C65.4361 0.407343 67.13 -0.000244141 68.8486 -0.000244141C70.5672 -0.000244141 72.2612 0.407343 73.7904 1.18883C75.1657 1.98383 76.2588 3.1854 76.9183 4.62704C77.6728 6.327 78.0399 8.17248 77.9932 10.0307V11.4499H74.0752V10.0253C74.1073 8.86363 73.8987 7.7078 73.4625 6.62998C73.1026 5.75033 72.4796 5.00241 71.6783 4.4878C70.8175 3.97461 69.8271 3.71812 68.8245 3.74874C67.836 3.72334 66.8608 3.97975 66.0136 4.4878C65.2118 5.0061 64.5845 5.75238 64.2132 6.62998C63.7736 7.71257 63.5632 8.87399 63.5952 10.0414V29.9584C63.5652 31.117 63.7756 32.2693 64.2132 33.3431C64.5845 34.2207 65.2118 34.9669 66.0136 35.4852C66.8655 35.9963 67.8467 36.2528 68.8406 36.2243C69.8432 36.2549 70.8336 35.9984 71.6944 35.4852C72.4957 34.9706 73.1187 34.2227 73.4787 33.3431C73.9149 32.2653 74.1234 31.1094 74.0914 29.9477V28.5231H77.9824V29.9477C78.0291 31.8059 77.6621 33.6514 76.9075 35.3514C76.2496 36.794 75.1561 37.996 73.7796 38.7896C72.2523 39.571 70.5601 39.9785 68.8433 39.9785C67.1264 39.9785 65.4342 39.571 63.9069 38.7896L63.9176 38.8164Z" fill="#254063"/>
<path d="M80.1483 0.406982H99.2435V4.01656H80.1483V0.406982ZM87.7477 3.62026H91.6441V39.6037H87.7477V3.62026Z" fill="#254063"/>
<path d="M107.499 39.5983H103.602V0.406982H107.499V39.5983Z" fill="#254063"/>
<path d="M147.124 17.748L134.376 2.30817H134.344C133.799 1.67285 133.072 1.21979 132.261 1.01047C131.449 0.801154 130.593 0.845724 129.807 1.13813C129.022 1.43054 128.346 1.95662 127.871 2.64497C127.396 3.33332 127.146 4.15061 127.153 4.9859V35.014C127.15 35.8179 127.386 36.6046 127.83 37.2755C128.275 37.9464 128.908 38.4715 129.651 38.785C130.394 39.0984 131.213 39.1863 132.006 39.0376C132.799 38.8888 133.53 38.5101 134.107 37.9488H134.161L147.124 22.2466C147.693 21.6347 148.009 20.8314 148.009 19.9973C148.009 19.1632 147.693 18.3599 147.124 17.748Z" fill="#19B89C"/>
<path d="M134.204 17.748L121.456 2.30817H121.424C120.879 1.67285 120.152 1.21979 119.341 1.01047C118.529 0.801154 117.673 0.845724 116.887 1.13813C116.102 1.43054 115.426 1.95662 114.951 2.64497C114.476 3.33332 114.225 4.15061 114.233 4.9859V35.014C114.23 35.8179 114.466 36.6046 114.91 37.2755C115.355 37.9464 115.988 38.4715 116.731 38.785C117.474 39.0984 118.293 39.1863 119.086 39.0376C119.879 38.8888 120.61 38.5101 121.187 37.9488H121.241L134.204 22.2466C134.773 21.6347 135.089 20.8314 135.089 19.9973C135.089 19.1632 134.773 18.3599 134.204 17.748Z" fill="#238FCC"/>
</g>
<defs>
<clipPath id="clip0">
<rect width="148" height="40" fill="white"/>
</clipPath>
</defs>
</svg>
