<svg width="581" height="375" viewBox="0 0 581 375" fill="none" xmlns="http://www.w3.org/2000/svg">
<path opacity="0.2" d="M101.945 71.6846L57.9364 17.9667H57.8251C55.9461 15.7563 53.4355 14.18 50.6339 13.4518C47.8323 12.7235 44.8755 12.8786 42.1647 13.8959C39.4539 14.9133 37.1204 16.7436 35.481 19.1385C33.8415 21.5334 32.9755 24.3769 33.0005 27.283V131.756C32.9915 134.553 33.8052 137.29 35.3395 139.624C36.8739 141.958 39.0605 143.785 41.625 144.876C44.1894 145.967 47.0175 146.272 49.7543 145.755C52.4912 145.237 55.0149 143.92 57.0087 141.967H57.1942L101.945 87.336C103.909 85.2072 105 82.4122 105 79.5103C105 76.6083 103.909 73.8134 101.945 71.6846Z" fill="#19B89C"/>
<path opacity="0.2" d="M83.3087 70.1568L30.1314 5.93764H29.9969C27.7266 3.29515 24.6929 1.41072 21.3077 0.540106C17.9224 -0.330504 14.3495 -0.145124 11.074 1.07108C7.79843 2.28729 4.97881 4.47543 2.99783 7.3385C1.01684 10.2016 -0.0295467 13.6009 0.000635004 17.0752V141.972C-0.0102212 145.315 0.973011 148.587 2.82699 151.378C4.68097 154.168 7.32313 156.352 10.4218 157.656C13.5206 158.96 16.9378 159.326 20.2448 158.707C23.5518 158.088 26.6013 156.513 29.0105 154.178H29.2347L83.3087 88.8678C85.6816 86.3229 87 82.9815 87 79.5123C87 76.043 85.6816 72.7017 83.3087 70.1568Z" fill="#238FCC"/>
<path d="M562.604 290.354V296.103" stroke="#231F20" stroke-width="2" stroke-miterlimit="10" stroke-linecap="round" stroke-linejoin="round"/>
<path d="M565.479 293.229H559.729" stroke="#231F20" stroke-width="2" stroke-miterlimit="10" stroke-linecap="round" stroke-linejoin="round"/>
<path d="M509.07 290.354V296.103" stroke="#231F20" stroke-width="2" stroke-miterlimit="10" stroke-linecap="round" stroke-linejoin="round"/>
<path d="M511.945 293.229H506.195" stroke="#231F20" stroke-width="2" stroke-miterlimit="10" stroke-linecap="round" stroke-linejoin="round"/>
<path d="M558.57 299.686V302.894" stroke="#231F20" stroke-miterlimit="10" stroke-linecap="round" stroke-linejoin="round"/>
<path d="M560.174 301.289H556.965" stroke="#231F20" stroke-miterlimit="10" stroke-linecap="round" stroke-linejoin="round"/>
<path d="M555.993 349.102V352.31" stroke="#231F20" stroke-miterlimit="10" stroke-linecap="round" stroke-linejoin="round"/>
<path d="M557.598 350.707H554.388" stroke="#231F20" stroke-miterlimit="10" stroke-linecap="round" stroke-linejoin="round"/>
<path d="M522.579 349.102V352.31" stroke="#231F20" stroke-miterlimit="10" stroke-linecap="round" stroke-linejoin="round"/>
<path d="M524.182 350.707H520.974" stroke="#231F20" stroke-miterlimit="10" stroke-linecap="round" stroke-linejoin="round"/>
<path d="M516.342 299.686V302.894" stroke="#231F20" stroke-miterlimit="10" stroke-linecap="round" stroke-linejoin="round"/>
<path d="M517.947 301.289H514.739" stroke="#231F20" stroke-miterlimit="10" stroke-linecap="round" stroke-linejoin="round"/>
<path d="M543.223 332.352L519.001 315.754" stroke="#D65B5B" stroke-opacity="0.5" stroke-width="2" stroke-miterlimit="10" stroke-linecap="round" stroke-linejoin="round"/>
<path d="M543.223 332.352L567.444 315.754" stroke="#D65B5B" stroke-opacity="0.5" stroke-width="2" stroke-miterlimit="10" stroke-linecap="round" stroke-linejoin="round"/>
<path d="M556.991 336.745L567.438 343.903" stroke="#D65B5B" stroke-opacity="0.5" stroke-width="2" stroke-miterlimit="10" stroke-linecap="round" stroke-linejoin="round"/>
<path d="M529.449 336.745L519.001 343.903" stroke="#D65B5B" stroke-opacity="0.5" stroke-width="2" stroke-miterlimit="10" stroke-linecap="round" stroke-linejoin="round"/>
<path d="M567.439 310.709H519V343.902H567.439V310.709Z" stroke="#D65B5B" stroke-opacity="0.5" stroke-width="2" stroke-miterlimit="10" stroke-linecap="round" stroke-linejoin="round"/>
<path d="M554.927 310.709H531.519C531.519 304.243 536.751 299 543.218 299C549.683 298.999 554.927 304.243 554.927 310.709Z" stroke="#D65B5B" stroke-opacity="0.5" stroke-width="2" stroke-miterlimit="10" stroke-linecap="round" stroke-linejoin="round"/>
<path d="M541.223 332.352L517.001 315.754" stroke="#231F20" stroke-width="2" stroke-miterlimit="10" stroke-linecap="round" stroke-linejoin="round"/>
<path d="M541.223 332.352L565.444 315.754" stroke="#231F20" stroke-width="2" stroke-miterlimit="10" stroke-linecap="round" stroke-linejoin="round"/>
<path d="M554.991 336.745L565.438 343.903" stroke="#231F20" stroke-width="2" stroke-miterlimit="10" stroke-linecap="round" stroke-linejoin="round"/>
<path d="M527.449 336.745L517.001 343.903" stroke="#231F20" stroke-width="2" stroke-miterlimit="10" stroke-linecap="round" stroke-linejoin="round"/>
<path d="M565.439 310.709H517V343.902H565.439V310.709Z" stroke="#231F20" stroke-width="2" stroke-miterlimit="10" stroke-linecap="round" stroke-linejoin="round"/>
<path d="M552.927 310.709H529.519C529.519 304.243 534.751 299 541.218 299C547.683 298.999 552.927 304.243 552.927 310.709Z" stroke="#231F20" stroke-width="2" stroke-miterlimit="10" stroke-linecap="round" stroke-linejoin="round"/>
<g clip-path="url(#clip0)">
<path d="M180.693 238.353C178.268 231.255 172.872 226.016 166.368 223.546C162.998 222.267 160.76 219.064 160.71 215.46C160.709 215.381 160.708 215.302 160.706 215.223C160.397 201.979 149.327 191.367 136.081 191.594C128.269 191.728 121.359 195.563 117.028 201.421C113.299 206.466 107.494 209.617 101.221 209.614C101.036 209.614 100.852 209.616 100.667 209.62C87.9691 209.898 77.1717 220.792 77.0023 233.492C76.8221 247.013 87.7285 258.03 101.208 258.03C111.656 258.03 120.557 251.411 123.948 242.137C124.836 239.711 127.466 238.41 129.954 239.108C129.985 239.116 130.016 239.125 130.047 239.134C132.323 239.762 133.832 241.931 133.646 244.285C133.397 247.44 133.765 250.695 134.835 253.882C139.044 266.419 152.716 273.3 165.288 269.197C178.148 265 185.053 251.113 180.693 238.353Z" fill="url(#paint0_linear)" fill-opacity="0.2"/>
<path d="M612.269 -51.241C609.844 -58.3388 604.448 -63.5785 597.944 -66.0481C594.575 -67.3276 592.336 -70.5303 592.286 -74.1341C592.285 -74.2129 592.284 -74.2918 592.282 -74.3708C591.973 -87.6151 580.903 -98.2275 567.657 -98.0001C559.845 -97.866 552.935 -94.0308 548.604 -88.1727C544.875 -83.128 539.07 -79.9768 532.797 -79.9801C532.613 -79.9801 532.428 -79.9782 532.243 -79.9741C519.545 -79.6964 508.748 -68.8019 508.578 -56.1024C508.398 -42.5812 519.305 -31.564 532.784 -31.564C543.232 -31.564 552.133 -38.1833 555.525 -47.4569C556.412 -49.8834 559.042 -51.184 561.53 -50.4863C561.561 -50.4777 561.592 -50.4689 561.623 -50.4603C563.899 -49.8319 565.409 -47.663 565.222 -45.3089C564.973 -42.1542 565.341 -38.8992 566.411 -35.7121C570.62 -23.1746 584.292 -16.2943 596.864 -20.3969C609.725 -24.5938 616.629 -38.4815 612.269 -51.241Z" fill="url(#paint1_linear)" fill-opacity="0.2"/>
<path d="M127.64 205.805L123.519 214.663C123.266 215.205 123.136 215.796 123.136 216.395V219.011C123.869 219.405 124.708 219.629 125.599 219.629C126.628 219.629 127.587 219.33 128.394 218.813C129.075 218.378 129.95 218.399 130.633 218.831C131.435 219.336 132.384 219.629 133.402 219.629C134.293 219.629 135.131 219.405 135.863 219.011V216.394C135.863 215.796 135.733 215.206 135.48 214.663L131.361 205.805C130.627 204.222 128.374 204.222 127.64 205.805Z" fill="#D6495D" fill-opacity="0.5"/>
<path d="M165.437 195.403H165.825L165.921 195.027C166.325 193.451 167.752 192.284 169.448 192.284C171.457 192.284 173.092 193.919 173.092 195.928C173.092 197.937 171.457 199.573 169.448 199.573C167.752 199.573 166.324 198.405 165.921 196.83L165.825 196.454H165.437H141.83L141.667 197.427C147.527 199.438 152.84 202.895 157.112 207.557L157.48 207.219L157.112 207.557C163.223 214.226 166.685 222.812 166.927 231.833L166.94 232.319H167.427H168.184C169.17 232.319 169.973 233.122 169.973 234.108V237.644C169.973 238.63 169.17 239.432 168.184 239.432H164.648C163.662 239.432 162.86 238.63 162.86 237.644V234.108C162.86 233.122 163.662 232.319 164.648 232.319H165.375H165.889L165.874 231.805C165.627 223.058 162.263 214.734 156.337 208.267C150.375 201.761 142.328 197.666 133.612 196.685L133.056 196.622V197.182V197.697C133.056 198.682 132.254 199.485 131.268 199.485H127.732C126.746 199.485 125.944 198.682 125.944 197.697V197.182V196.622L125.388 196.685C116.672 197.666 108.624 201.761 102.663 208.267C96.7365 214.734 93.3729 223.058 93.1255 231.805L93.1109 232.319H93.6253H94.3517C95.3374 232.319 96.1401 233.122 96.1401 234.108V237.644C96.1401 238.629 95.3374 239.432 94.3517 239.432H90.8155C89.8298 239.432 89.027 238.629 89.027 237.644V234.108C89.027 233.122 89.8298 232.319 90.8155 232.319H91.5733H92.0601L92.0731 231.833C92.3145 222.812 95.777 214.226 101.888 207.557C106.16 202.895 111.473 199.438 117.333 197.426L117.17 196.454H93.5631H93.175L93.0788 196.83C92.6755 198.405 91.2478 199.573 89.5524 199.573C87.5434 199.573 85.9082 197.937 85.9082 195.928C85.9082 193.919 87.5434 192.284 89.5524 192.284C91.2479 192.284 92.6755 193.451 93.0788 195.027L93.175 195.403H93.5631H125.444H125.944V194.903V194.16C125.944 193.174 126.746 192.372 127.732 192.372H131.268C132.254 192.372 133.056 193.174 133.056 194.16V194.903V195.403H133.556H165.437ZM95.0896 237.644V234.108C95.0896 233.7 94.7582 233.37 94.3517 233.37H90.8155C90.4089 233.37 90.0778 233.7 90.0778 234.108V237.644C90.0778 238.051 90.4081 238.381 90.8155 238.381H94.3519C94.7585 238.381 95.0896 238.052 95.0896 237.644ZM168.922 237.644V234.108C168.922 233.7 168.591 233.37 168.185 233.37H164.648C164.242 233.37 163.911 233.7 163.911 234.108V237.644C163.911 238.051 164.241 238.381 164.648 238.381H168.185C168.591 238.381 168.922 238.052 168.922 237.644ZM172.041 195.928C172.041 194.498 170.878 193.335 169.448 193.335C168.017 193.335 166.854 194.498 166.854 195.928C166.854 197.359 168.017 198.522 169.448 198.522C170.878 198.522 172.041 197.359 172.041 195.928ZM86.959 195.928C86.959 197.359 88.1218 198.522 89.5524 198.522C90.9829 198.522 92.1461 197.359 92.1461 195.928C92.1461 194.498 90.9829 193.335 89.5524 193.335C88.1219 193.335 86.959 194.498 86.959 195.928ZM131.268 198.434C131.675 198.434 132.006 198.104 132.006 197.696V194.16C132.006 193.754 131.676 193.422 131.268 193.422H127.732C127.325 193.422 126.994 193.753 126.994 194.16V197.696C126.994 198.103 127.324 198.434 127.732 198.434H131.268Z" stroke="black"/>
<mask id="path-33-inside-1" fill="white">
<path d="M155.756 242.17L151.013 240.82C150.523 239.031 149.811 237.314 148.892 235.702L151.292 231.391C151.74 230.585 151.597 229.566 150.945 228.914L147.318 225.287C146.666 224.635 145.648 224.492 144.84 224.941L140.53 227.34C139.37 226.679 138.149 226.124 136.889 225.681V216.395C136.889 215.653 136.724 214.905 136.411 214.232L132.292 205.372C131.781 204.274 130.711 203.592 129.5 203.592C128.289 203.592 127.22 204.274 126.709 205.372L122.589 214.232C122.277 214.905 122.111 215.653 122.111 216.395V225.681C120.851 226.123 119.63 226.679 118.47 227.34L114.159 224.94C113.352 224.493 112.333 224.635 111.681 225.287L108.054 228.914C107.402 229.567 107.26 230.585 107.708 231.393L110.107 235.703C109.188 237.314 108.477 239.031 107.986 240.82L103.244 242.17C102.356 242.423 101.736 243.245 101.736 244.169V249.297C101.736 250.221 102.356 251.043 103.244 251.295L107.986 252.646C108.477 254.435 109.188 256.151 110.107 257.763L107.707 262.074C107.26 262.881 107.402 263.899 108.054 264.551L111.681 268.178C112.333 268.83 113.352 268.974 114.16 268.524L118.47 266.125C120.081 267.044 121.798 267.755 123.587 268.246L124.937 272.988C125.19 273.876 126.012 274.497 126.936 274.497H132.064C132.988 274.497 133.81 273.876 134.062 272.988L135.412 268.246C137.202 267.755 138.918 267.044 140.53 266.125L144.841 268.525C145.647 268.973 146.666 268.83 147.318 268.178L150.946 264.551C151.597 263.899 151.74 262.88 151.292 262.073L148.893 257.763C149.811 256.151 150.523 254.435 151.013 252.645L155.756 251.295C156.644 251.042 157.264 250.221 157.264 249.297V244.169C157.264 243.245 156.644 242.423 155.756 242.17ZM129.5 223.502C128.933 223.502 128.474 223.961 128.474 224.527V256.652C123.456 256.137 119.528 251.885 119.528 246.732C119.528 244.251 120.471 241.865 122.111 240.046V250.051C122.111 250.617 122.57 251.076 123.137 251.076C123.703 251.076 124.162 250.617 124.162 250.051V220.485C124.631 220.596 125.114 220.655 125.599 220.655C126.79 220.655 127.947 220.317 128.947 219.677C129.28 219.463 129.728 219.472 130.086 219.698C131.078 220.324 132.224 220.655 133.402 220.655C133.887 220.655 134.37 220.596 134.839 220.484V254.994C134.839 255.044 134.847 255.091 134.854 255.139C133.578 255.954 132.106 256.49 130.525 256.652V224.527C130.525 223.961 130.066 223.502 129.5 223.502ZM136.89 240.036C138.547 241.854 139.472 244.213 139.472 246.732C139.472 249.304 138.494 251.65 136.89 253.421V240.036ZM128.569 206.237C128.825 205.686 129.347 205.643 129.5 205.643C129.654 205.643 130.176 205.686 130.432 206.237L132.324 210.306C131.476 210.819 130.498 211.099 129.5 211.099C128.487 211.099 127.526 210.825 126.676 210.309L128.569 206.237ZM124.449 215.096L125.806 212.178C126.929 212.81 128.204 213.149 129.5 213.149C130.798 213.149 132.073 212.81 133.194 212.178L134.552 215.096C134.74 215.5 134.839 215.95 134.839 216.395V218.349C134.382 218.517 133.901 218.604 133.402 218.604C132.612 218.604 131.844 218.382 131.181 217.963C130.153 217.315 128.842 217.309 127.841 217.95C127.173 218.378 126.397 218.604 125.599 218.604C125.107 218.604 124.62 218.515 124.162 218.348V216.395C124.162 215.95 124.261 215.5 124.449 215.096ZM155.213 249.297C155.213 249.309 155.206 249.319 155.194 249.322L149.887 250.834C149.533 250.934 149.26 251.218 149.172 251.575C148.684 253.566 147.897 255.464 146.834 257.217C146.643 257.532 146.636 257.926 146.815 258.247L149.499 263.069C149.505 263.079 149.503 263.093 149.496 263.101L145.869 266.728C145.86 266.736 145.847 266.737 145.838 266.732L141.015 264.048C140.693 263.868 140.3 263.875 139.985 264.067C138.232 265.13 136.334 265.916 134.343 266.405C133.985 266.493 133.702 266.765 133.601 267.12L132.09 272.426C132.086 272.438 132.077 272.446 132.064 272.446H126.936C126.923 272.446 126.914 272.438 126.91 272.426L125.399 267.12C125.298 266.765 125.015 266.492 124.657 266.405C122.666 265.916 120.768 265.13 119.015 264.067C118.7 263.876 118.307 263.868 117.985 264.048L113.163 266.732C113.153 266.738 113.14 266.736 113.131 266.728L109.505 263.101C109.497 263.093 109.495 263.079 109.5 263.07L112.185 258.247C112.364 257.926 112.357 257.532 112.166 257.217C111.103 255.464 110.316 253.566 109.828 251.575C109.74 251.218 109.467 250.934 109.113 250.834L103.806 249.322C103.794 249.319 103.787 249.309 103.787 249.297V244.168C103.787 244.156 103.794 244.146 103.806 244.143L109.113 242.631C109.467 242.531 109.74 242.247 109.828 241.89C110.316 239.899 111.103 238.001 112.166 236.248C112.357 235.933 112.364 235.539 112.185 235.218L109.501 230.396C109.495 230.386 109.497 230.372 109.505 230.364L113.132 226.737C113.14 226.73 113.154 226.727 113.162 226.732L117.985 229.417C118.307 229.597 118.701 229.589 119.016 229.398C120.001 228.8 121.038 228.288 122.111 227.868V237.254C119.206 239.524 117.478 243.041 117.478 246.732C117.478 253.362 122.871 258.755 129.5 258.755C136.13 258.755 141.523 253.362 141.523 246.732C141.523 242.995 139.835 239.549 136.89 237.253V227.868C137.962 228.288 139 228.801 139.985 229.398C140.3 229.589 140.693 229.597 141.015 229.417L145.837 226.733C145.847 226.728 145.861 226.729 145.869 226.738L149.496 230.364C149.503 230.372 149.505 230.386 149.5 230.395L146.815 235.218C146.636 235.539 146.643 235.933 146.834 236.248C147.898 238.001 148.684 239.899 149.172 241.89C149.26 242.248 149.533 242.531 149.887 242.632L155.194 244.143C155.206 244.146 155.213 244.156 155.213 244.169V249.297Z"/>
</mask>
<path d="M155.756 242.17L151.013 240.82C150.523 239.031 149.811 237.314 148.892 235.702L151.292 231.391C151.74 230.585 151.597 229.566 150.945 228.914L147.318 225.287C146.666 224.635 145.648 224.492 144.84 224.941L140.53 227.34C139.37 226.679 138.149 226.124 136.889 225.681V216.395C136.889 215.653 136.724 214.905 136.411 214.232L132.292 205.372C131.781 204.274 130.711 203.592 129.5 203.592C128.289 203.592 127.22 204.274 126.709 205.372L122.589 214.232C122.277 214.905 122.111 215.653 122.111 216.395V225.681C120.851 226.123 119.63 226.679 118.47 227.34L114.159 224.94C113.352 224.493 112.333 224.635 111.681 225.287L108.054 228.914C107.402 229.567 107.26 230.585 107.708 231.393L110.107 235.703C109.188 237.314 108.477 239.031 107.986 240.82L103.244 242.17C102.356 242.423 101.736 243.245 101.736 244.169V249.297C101.736 250.221 102.356 251.043 103.244 251.295L107.986 252.646C108.477 254.435 109.188 256.151 110.107 257.763L107.707 262.074C107.26 262.881 107.402 263.899 108.054 264.551L111.681 268.178C112.333 268.83 113.352 268.974 114.16 268.524L118.47 266.125C120.081 267.044 121.798 267.755 123.587 268.246L124.937 272.988C125.19 273.876 126.012 274.497 126.936 274.497H132.064C132.988 274.497 133.81 273.876 134.062 272.988L135.412 268.246C137.202 267.755 138.918 267.044 140.53 266.125L144.841 268.525C145.647 268.973 146.666 268.83 147.318 268.178L150.946 264.551C151.597 263.899 151.74 262.88 151.292 262.073L148.893 257.763C149.811 256.151 150.523 254.435 151.013 252.645L155.756 251.295C156.644 251.042 157.264 250.221 157.264 249.297V244.169C157.264 243.245 156.644 242.423 155.756 242.17ZM129.5 223.502C128.933 223.502 128.474 223.961 128.474 224.527V256.652C123.456 256.137 119.528 251.885 119.528 246.732C119.528 244.251 120.471 241.865 122.111 240.046V250.051C122.111 250.617 122.57 251.076 123.137 251.076C123.703 251.076 124.162 250.617 124.162 250.051V220.485C124.631 220.596 125.114 220.655 125.599 220.655C126.79 220.655 127.947 220.317 128.947 219.677C129.28 219.463 129.728 219.472 130.086 219.698C131.078 220.324 132.224 220.655 133.402 220.655C133.887 220.655 134.37 220.596 134.839 220.484V254.994C134.839 255.044 134.847 255.091 134.854 255.139C133.578 255.954 132.106 256.49 130.525 256.652V224.527C130.525 223.961 130.066 223.502 129.5 223.502ZM136.89 240.036C138.547 241.854 139.472 244.213 139.472 246.732C139.472 249.304 138.494 251.65 136.89 253.421V240.036ZM128.569 206.237C128.825 205.686 129.347 205.643 129.5 205.643C129.654 205.643 130.176 205.686 130.432 206.237L132.324 210.306C131.476 210.819 130.498 211.099 129.5 211.099C128.487 211.099 127.526 210.825 126.676 210.309L128.569 206.237ZM124.449 215.096L125.806 212.178C126.929 212.81 128.204 213.149 129.5 213.149C130.798 213.149 132.073 212.81 133.194 212.178L134.552 215.096C134.74 215.5 134.839 215.95 134.839 216.395V218.349C134.382 218.517 133.901 218.604 133.402 218.604C132.612 218.604 131.844 218.382 131.181 217.963C130.153 217.315 128.842 217.309 127.841 217.95C127.173 218.378 126.397 218.604 125.599 218.604C125.107 218.604 124.62 218.515 124.162 218.348V216.395C124.162 215.95 124.261 215.5 124.449 215.096ZM155.213 249.297C155.213 249.309 155.206 249.319 155.194 249.322L149.887 250.834C149.533 250.934 149.26 251.218 149.172 251.575C148.684 253.566 147.897 255.464 146.834 257.217C146.643 257.532 146.636 257.926 146.815 258.247L149.499 263.069C149.505 263.079 149.503 263.093 149.496 263.101L145.869 266.728C145.86 266.736 145.847 266.737 145.838 266.732L141.015 264.048C140.693 263.868 140.3 263.875 139.985 264.067C138.232 265.13 136.334 265.916 134.343 266.405C133.985 266.493 133.702 266.765 133.601 267.12L132.09 272.426C132.086 272.438 132.077 272.446 132.064 272.446H126.936C126.923 272.446 126.914 272.438 126.91 272.426L125.399 267.12C125.298 266.765 125.015 266.492 124.657 266.405C122.666 265.916 120.768 265.13 119.015 264.067C118.7 263.876 118.307 263.868 117.985 264.048L113.163 266.732C113.153 266.738 113.14 266.736 113.131 266.728L109.505 263.101C109.497 263.093 109.495 263.079 109.5 263.07L112.185 258.247C112.364 257.926 112.357 257.532 112.166 257.217C111.103 255.464 110.316 253.566 109.828 251.575C109.74 251.218 109.467 250.934 109.113 250.834L103.806 249.322C103.794 249.319 103.787 249.309 103.787 249.297V244.168C103.787 244.156 103.794 244.146 103.806 244.143L109.113 242.631C109.467 242.531 109.74 242.247 109.828 241.89C110.316 239.899 111.103 238.001 112.166 236.248C112.357 235.933 112.364 235.539 112.185 235.218L109.501 230.396C109.495 230.386 109.497 230.372 109.505 230.364L113.132 226.737C113.14 226.73 113.154 226.727 113.162 226.732L117.985 229.417C118.307 229.597 118.701 229.589 119.016 229.398C120.001 228.8 121.038 228.288 122.111 227.868V237.254C119.206 239.524 117.478 243.041 117.478 246.732C117.478 253.362 122.871 258.755 129.5 258.755C136.13 258.755 141.523 253.362 141.523 246.732C141.523 242.995 139.835 239.549 136.89 237.253V227.868C137.962 228.288 139 228.801 139.985 229.398C140.3 229.589 140.693 229.597 141.015 229.417L145.837 226.733C145.847 226.728 145.861 226.729 145.869 226.738L149.496 230.364C149.503 230.372 149.505 230.386 149.5 230.395L146.815 235.218C146.636 235.539 146.643 235.933 146.834 236.248C147.898 238.001 148.684 239.899 149.172 241.89C149.26 242.248 149.533 242.531 149.887 242.632L155.194 244.143C155.206 244.146 155.213 244.156 155.213 244.169V249.297Z" stroke="black" stroke-width="2" mask="url(#path-33-inside-1)"/>
<path opacity="0.1" d="M169.448 194.741C171.17 194.741 172.566 193.344 172.566 191.622C172.566 189.899 171.17 188.503 169.448 188.503C168.085 188.503 166.929 189.378 166.505 190.596H132.531V189.854C132.531 189.156 131.966 188.591 131.268 188.591H127.732C127.034 188.591 126.469 189.156 126.469 189.854V190.596H92.4953C92.0708 189.378 90.9152 188.503 89.5524 188.503C87.83 188.503 86.4336 189.899 86.4336 191.622C86.4336 193.344 87.83 194.74 89.5524 194.74C90.9152 194.74 92.0708 193.865 92.4953 192.647H118.773C103.213 197.241 91.7857 211.561 91.5634 228.538H90.8153C90.1178 228.538 89.5524 229.103 89.5524 229.801V233.337C89.5524 234.035 90.1178 234.6 90.8153 234.6H94.3517C95.0491 234.6 95.6147 234.035 95.6147 233.337V229.801C95.6147 229.103 95.0493 228.538 94.3517 228.538H93.615C93.872 209.997 108.257 194.811 126.469 193.28V193.39C126.469 194.087 127.034 194.653 127.732 194.653H131.268C131.966 194.653 132.531 194.087 132.531 193.39V193.28C150.743 194.811 165.128 209.997 165.385 228.538H164.649C163.951 228.538 163.386 229.103 163.386 229.801V233.337C163.386 234.035 163.951 234.6 164.649 234.6H168.185C168.882 234.6 169.448 234.035 169.448 233.337V229.801C169.448 229.103 168.882 228.538 168.185 228.538H167.437C167.214 211.561 155.787 197.241 140.227 192.647H166.505C166.929 193.865 168.085 194.741 169.448 194.741Z" fill="#590BB2"/>
<path d="M88.9544 211.652C88.388 211.652 87.929 211.193 87.929 210.626C87.929 209.948 87.3776 209.397 86.6996 209.397C86.1332 209.397 85.6742 208.938 85.6742 208.371C85.6742 207.805 86.1332 207.346 86.6996 207.346C87.3776 207.346 87.929 206.794 87.929 206.116C87.929 205.55 88.388 205.091 88.9544 205.091C89.5208 205.091 89.9798 205.55 89.9798 206.116C89.9798 206.794 90.5313 207.346 91.2093 207.346C91.7757 207.346 92.2346 207.805 92.2346 208.371C92.2346 208.938 91.7757 209.397 91.2093 209.397C90.5313 209.397 89.9798 209.948 89.9798 210.626C89.9798 211.193 89.5208 211.652 88.9544 211.652Z" fill="#F76570" fill-opacity="0.5"/>
<path d="M147.858 216.87C147.568 216.87 147.333 216.635 147.333 216.345C147.333 215.391 146.558 214.615 145.603 214.615C145.313 214.615 145.078 214.38 145.078 214.09C145.078 213.8 145.313 213.565 145.603 213.565C146.558 213.565 147.333 212.789 147.333 211.835C147.333 211.545 147.568 211.31 147.858 211.31C148.149 211.31 148.384 211.545 148.384 211.835C148.384 212.789 149.159 213.565 150.113 213.565C150.404 213.565 150.639 213.8 150.639 214.09C150.639 214.38 150.404 214.615 150.113 214.615C149.159 214.615 148.384 215.391 148.384 216.345C148.384 216.635 148.149 216.87 147.858 216.87Z" stroke="black"/>
<path d="M97.8696 268.821C97.6073 268.821 97.3446 268.721 97.1446 268.521L94.89 266.266C94.4895 265.866 94.4895 265.217 94.89 264.816L97.1446 262.562C97.5447 262.161 98.1944 262.161 98.5945 262.562L100.849 264.816C101.25 265.217 101.25 265.866 100.849 266.266L98.5945 268.521C98.3944 268.721 98.1319 268.821 97.8696 268.821ZM97.065 265.541L97.8696 266.346L98.6741 265.541L97.8696 264.737L97.065 265.541Z" fill="#FF647C" fill-opacity="0.5"/>
</g>
<path d="M42.352 51.0583C43.2537 51.7041 43.8438 52.7594 43.8438 53.9529C43.8438 55.9212 42.2495 57.5154 40.2812 57.5154C39.2214 57.5154 38.2729 57.05 37.6205 56.3153C37.0616 55.6851 36.7188 54.8613 36.7188 53.9529C36.7188 51.9846 38.313 50.3904 40.2812 50.3904C41.0539 50.3904 41.7686 50.6398 42.352 51.0583Z" fill="#FBE4E8"/>
<path d="M41.0234 52.6911C41.796 52.6911 42.5107 52.9404 43.0941 53.359C43.3751 53.5601 43.6258 53.8012 43.8377 54.0735C43.8391 54.033 43.8438 53.9936 43.8438 53.9526C43.8438 52.7592 43.2537 51.7038 42.352 51.0581C41.7686 50.6395 41.0539 50.3901 40.2812 50.3901C38.313 50.3901 36.7188 51.9844 36.7188 53.9526C36.7188 54.7738 37.0009 55.5241 37.4673 56.1264C37.5348 54.2178 39.0981 52.6911 41.0234 52.6911Z" fill="#8BBAE8"/>
<path d="M95.0547 111.398C95.0547 109.43 96.6489 107.836 98.6172 107.836C99.3809 107.836 100.089 108.078 100.668 108.488C101.581 109.134 102.18 110.196 102.18 111.398C102.18 113.366 100.585 114.961 98.6172 114.961C97.3436 114.961 96.2303 114.291 95.6002 113.286C95.2573 112.739 95.0547 112.093 95.0547 111.398Z" fill="#EA3D4E" fill-opacity="0.5"/>
<path d="M99.3221 110.025C100.086 110.025 100.794 110.268 101.373 110.677C101.68 110.895 101.951 111.161 102.176 111.462C102.177 111.44 102.18 111.42 102.18 111.398C102.18 110.196 101.581 109.134 100.668 108.488C100.089 108.078 99.3809 107.836 98.6172 107.836C96.6489 107.836 95.0547 109.43 95.0547 111.398C95.0547 112.093 95.2573 112.739 95.6002 113.286C95.6512 113.367 95.7062 113.445 95.7627 113.522C95.7984 111.584 97.3761 110.025 99.3221 110.025Z" fill="#E2BF7F"/>
<path d="M67 63.7498C65.152 63.7498 63.6334 62.3426 63.4553 60.5413C63.4442 60.4255 63.4375 60.3075 63.4375 60.1873C63.4375 58.219 65.0317 56.6248 67 56.6248C68.9683 56.6248 70.5625 58.219 70.5625 60.1873C70.5625 60.3075 70.5558 60.4255 70.5447 60.5413C70.3666 62.3426 68.848 63.7498 67 63.7498Z" fill="#D7DEED"/>
<path d="M64.1796 62.1912C64.1796 60.2229 65.7738 58.6287 67.7421 58.6287C68.8863 58.6287 69.9014 59.1697 70.5532 60.0076C70.4592 58.1235 68.9075 56.6248 67 56.6248C65.0317 56.6248 63.4375 58.219 63.4375 60.1873C63.4375 60.3075 63.4442 60.4255 63.4553 60.5413C63.5232 61.2282 63.7871 61.8572 64.1887 62.3733C64.1856 62.3125 64.1796 62.2531 64.1796 62.1912Z" fill="#AFB9D2"/>
<path d="M67.2227 86.0154C71.5266 86.0154 75.0156 82.5264 75.0156 78.2224C75.0156 73.9185 71.5266 70.4294 67.2227 70.4294C62.9187 70.4294 59.4297 73.9185 59.4297 78.2224C59.4297 82.5264 62.9187 86.0154 67.2227 86.0154Z" fill="#79CCD0"/>
<path d="M60.877 80.9687C60.877 76.6645 64.366 73.1757 68.6699 73.1757C71.102 73.1757 73.2733 74.2901 74.7023 76.0357C73.7569 72.7965 70.7671 70.4294 67.2227 70.4294C62.9187 70.4294 59.4297 73.9185 59.4297 78.2224C59.4297 80.0943 60.0901 81.8116 61.1902 83.1551C60.9876 82.4611 60.877 81.7281 60.877 80.9687Z" fill="#60B2B2"/>
<path d="M67 124.535C41.3404 124.535 20.4648 103.659 20.4648 77.9998C20.4648 52.3402 41.3404 31.4646 67 31.4646C92.6596 31.4646 113.535 52.3402 113.535 77.9998C113.535 89.5721 109.258 100.665 101.493 109.236C101.08 109.691 100.376 109.726 99.9202 109.313C99.4646 108.9 99.4299 108.196 99.8427 107.74C107.237 99.5805 111.309 89.0181 111.309 77.9998C111.309 53.5679 91.4318 33.6912 67 33.6912C42.5682 33.6912 22.6914 53.5679 22.6914 77.9998C22.6914 102.432 42.5682 122.308 67 122.308C77.1346 122.308 87.0426 118.797 94.8988 112.422C95.3758 112.035 96.0771 112.107 96.4648 112.585C96.852 113.062 96.7792 113.763 96.3018 114.151C88.0501 120.847 77.6441 124.535 67 124.535Z" fill="black"/>
<path d="M67 115.629C46.2513 115.629 29.3711 98.7484 29.3711 77.9998C29.3711 69.8857 31.9141 62.1584 36.7254 55.6533C37.091 55.1588 37.7879 55.0548 38.2825 55.4202C38.7768 55.7858 38.8812 56.4829 38.5156 56.9772C33.9899 63.0963 31.5977 70.3658 31.5977 77.9998C31.5977 97.5207 47.4791 113.402 67 113.402C86.5209 113.402 102.402 97.5207 102.402 77.9998C102.402 58.4788 86.5209 42.5974 67 42.5974C58.1318 42.5974 49.6453 45.8938 43.1034 51.8797C42.6499 52.295 41.9454 52.2634 41.5306 51.81C41.1155 51.3563 41.1467 50.6522 41.6003 50.2372C48.5536 43.8748 57.5741 40.3708 67 40.3708C87.7487 40.3708 104.629 57.2511 104.629 77.9998C104.629 98.7484 87.7487 115.629 67 115.629Z" fill="black"/>
<path d="M67 96.9255C56.5643 96.9255 48.0742 88.4354 48.0742 77.9997C48.0742 69.0251 54.4502 61.2239 63.2349 59.45C63.8372 59.3273 64.4248 59.7183 64.5466 60.3208C64.6683 60.9236 64.2783 61.5107 63.6757 61.6325C55.9257 63.1973 50.3008 70.0807 50.3008 77.9997C50.3008 87.2077 57.7921 94.6989 67 94.6989C76.2079 94.6989 83.6992 87.2077 83.6992 77.9997C83.6992 70.081 78.0743 63.1975 70.3245 61.6325C69.7218 61.5109 69.3319 60.9236 69.4535 60.3208C69.5752 59.7181 70.1619 59.3275 70.7651 59.45C79.5498 61.2239 85.9258 69.0251 85.9258 77.9997C85.9258 88.4354 77.4357 96.9255 67 96.9255Z" fill="black"/>
<path d="M67 64.863C64.5851 64.863 62.5847 63.0522 62.3474 60.6508C62.3318 60.4885 62.3242 60.3375 62.3242 60.1873C62.3242 57.6089 64.4216 55.5115 67 55.5115C69.5781 55.5115 71.6758 57.6089 71.6758 60.1873C71.6758 60.336 71.6684 60.4865 71.6528 60.6473C71.4151 63.0522 69.4152 64.863 67 64.863ZM67 57.738C65.6496 57.738 64.5508 58.8368 64.5508 60.1873C64.5508 60.2654 64.555 60.346 64.5635 60.434C64.6875 61.6886 65.7351 62.6365 67 62.6365C68.2649 62.6365 69.3125 61.6886 69.4367 60.4317C69.445 60.3453 69.4492 60.2645 69.4492 60.1873C69.4492 58.8368 68.3504 57.738 67 57.738Z" fill="black"/>
<path d="M98.6172 116.074C97.0005 116.074 95.52 115.253 94.6572 113.878C94.1886 113.129 93.9414 112.272 93.9414 111.398C93.9414 108.82 96.0391 106.722 98.6172 106.722C99.5873 106.722 100.519 107.019 101.311 107.579C102.552 108.457 103.293 109.885 103.293 111.398C103.293 113.976 101.195 116.074 98.6172 116.074ZM98.6172 108.949C97.2668 108.949 96.168 110.048 96.168 111.398C96.168 111.854 96.298 112.303 96.5438 112.696C96.9962 113.416 97.7715 113.847 98.6172 113.847C99.9676 113.847 101.066 112.749 101.066 111.398C101.066 110.606 100.677 109.858 100.025 109.397C99.6109 109.104 99.124 108.949 98.6172 108.949Z" fill="black"/>
<path d="M40.2812 58.6287C38.9495 58.6287 37.6762 58.0549 36.788 57.0545C36.0252 56.1944 35.6055 55.0931 35.6055 53.9529C35.6055 51.3745 37.7029 49.2771 40.2812 49.2771C41.2612 49.2771 42.2017 49.5804 43.001 50.1539C44.2256 51.0305 44.957 52.4511 44.957 53.9529C44.957 56.5312 42.8596 58.6287 40.2812 58.6287ZM40.2812 51.5037C38.9308 51.5037 37.832 52.6025 37.832 53.9529C37.832 54.548 38.0527 55.1247 38.4535 55.5765C38.919 56.1008 39.5854 56.4021 40.2812 56.4021C41.6317 56.4021 42.7305 55.3033 42.7305 53.9529C42.7305 53.1676 42.3466 52.4239 41.7038 51.9634C41.2841 51.6624 40.7927 51.5037 40.2812 51.5037Z" fill="black"/>
<path d="M67.2227 87.1287C62.3117 87.1287 58.3164 83.1333 58.3164 78.2224C58.3164 73.3115 62.3117 69.3162 67.2227 69.3162C72.1336 69.3162 76.1289 73.3115 76.1289 78.2224C76.1289 83.1333 72.1336 87.1287 67.2227 87.1287ZM67.2227 71.5427C63.5395 71.5427 60.543 74.5392 60.543 78.2224C60.543 81.9056 63.5395 84.9021 67.2227 84.9021C70.9058 84.9021 73.9023 81.9056 73.9023 78.2224C73.9023 74.5392 70.9058 71.5427 67.2227 71.5427Z" fill="black"/>
<g clip-path="url(#clip1)">
<path d="M292.981 287C275.685 287.092 267.002 316.837 263.761 332.127C260.52 347.417 263.907 378.784 289.043 374.623C293.106 373.951 294.055 373.813 297.404 372.132C303.365 369.139 310.421 367.034 316.797 366.398C319.411 366.137 322.717 365.274 324.466 364.96C338.496 362.437 352.813 348.845 348.479 334.603C345.224 323.907 335.687 319.602 326.135 320.194C320.89 320.519 315.308 317.442 314.188 314.043C310.542 302.971 306.349 286.929 292.981 287Z" fill="url(#paint2_linear)" fill-opacity="0.2"/>
<path opacity="0.1" d="M341.441 332.202C341.441 328.191 338.189 324.939 334.178 324.939C332.287 324.939 330.566 325.662 329.274 326.846C324.255 320.722 316.765 316.702 308.325 316.312L329.002 307.876C329.715 307.585 329.715 306.575 329.002 306.285L307.299 297.429C307.09 297.344 306.857 297.344 306.649 297.429L284.946 306.285C284.233 306.575 284.233 307.585 284.946 307.876L305.622 316.312C295.024 316.802 285.922 323.016 281.334 331.934C280.888 331.849 280.428 331.802 279.958 331.802C275.946 331.802 272.695 335.054 272.695 339.065C272.695 342.461 275.026 345.312 278.176 346.107C278.708 361.555 291.396 373.915 306.974 373.915C314.048 373.915 320.526 371.364 325.541 367.135C326.318 367.418 327.158 367.573 328.033 367.573C332.044 367.573 335.296 364.322 335.296 360.311C335.296 358.611 334.71 357.049 333.732 355.812C335.06 352.5 335.792 348.884 335.792 345.097C335.792 343.143 335.596 341.234 335.225 339.388C338.74 338.881 341.441 335.857 341.441 332.202Z" fill="#79CCD0"/>
<path d="M285.786 311.182H285.271V310.666C285.271 310.191 284.886 309.807 284.411 309.807C283.937 309.807 283.552 310.191 283.552 310.666V311.182H283.036C282.562 311.182 282.177 311.566 282.177 312.041C282.177 312.516 282.562 312.9 283.036 312.9H283.552V313.416C283.552 313.891 283.937 314.275 284.411 314.275C284.886 314.275 285.271 313.891 285.271 313.416V312.9H285.786C286.261 312.9 286.646 312.516 286.646 312.041C286.646 311.566 286.261 311.182 285.786 311.182Z" fill="#C182F9"/>
<path d="M278.958 360.037H278.443V359.521C278.443 359.046 278.058 358.662 277.583 358.662C277.109 358.662 276.724 359.046 276.724 359.521V360.037H276.208C275.734 360.037 275.349 360.421 275.349 360.896C275.349 361.371 275.734 361.755 276.208 361.755H276.724V362.271C276.724 362.746 277.109 363.13 277.583 363.13C278.058 363.13 278.443 362.746 278.443 362.271V361.755H278.958C279.433 361.755 279.818 361.371 279.818 360.896C279.818 360.421 279.433 360.037 278.958 360.037Z" fill="#FFA052"/>
<path opacity="0.5" d="M325.365 291.866H324.849V291.35C324.849 290.876 324.464 290.491 323.99 290.491C323.515 290.491 323.13 290.876 323.13 291.35V291.866H322.615C322.14 291.866 321.755 292.251 321.755 292.725C321.755 293.2 322.14 293.584 322.615 293.584H323.13V294.1C323.13 294.575 323.515 294.959 323.99 294.959C324.464 294.959 324.849 294.575 324.849 294.1V293.584H325.365C325.839 293.584 326.224 293.2 326.224 292.725C326.224 292.251 325.839 291.866 325.365 291.866Z" fill="#D6495D"/>
<path opacity="0.5" d="M335.792 316.329C335.572 316.329 335.352 316.246 335.184 316.078L334.417 315.311L333.649 316.078C333.314 316.413 332.77 316.413 332.434 316.078C332.098 315.742 332.098 315.198 332.434 314.862L333.809 313.487C334.145 313.152 334.689 313.152 335.024 313.487L336.399 314.862C336.735 315.198 336.735 315.742 336.399 316.078C336.232 316.246 336.012 316.329 335.792 316.329Z" fill="#FFA052"/>
<path d="M278.958 319.275C278.738 319.275 278.519 319.191 278.351 319.024L277.583 318.256L276.816 319.024C276.481 319.359 275.937 319.359 275.601 319.024C275.265 318.688 275.265 318.144 275.601 317.808L276.976 316.433C277.312 316.098 277.856 316.098 278.191 316.433L279.566 317.808C279.902 318.144 279.902 318.688 279.566 319.024C279.398 319.191 279.178 319.275 278.958 319.275Z" fill="#FDD250"/>
<path d="M317.458 331.733C319.287 331.733 320.77 330.25 320.77 328.421C320.77 326.592 319.287 325.109 317.458 325.109C315.629 325.109 314.146 326.592 314.146 328.421C314.146 330.25 315.629 331.733 317.458 331.733Z" fill="#FF6C75" fill-opacity="0.5"/>
<path d="M282.813 333.427C282.813 331.852 281.532 330.571 279.958 330.571C278.383 330.571 277.102 331.852 277.102 333.427C277.102 334.203 277.415 334.907 277.92 335.423C277.415 335.938 277.102 336.642 277.102 337.419C277.102 337.893 277.487 338.278 277.962 338.278C278.436 338.278 278.821 337.893 278.821 337.419C278.821 336.792 279.331 336.282 279.958 336.282C280.584 336.282 281.094 336.792 281.094 337.419C281.094 337.893 281.479 338.278 281.954 338.278C282.428 338.278 282.813 337.893 282.813 337.419C282.813 336.642 282.501 335.938 281.996 335.423C282.501 334.907 282.813 334.203 282.813 333.427ZM279.958 332.29C280.584 332.29 281.094 332.8 281.094 333.426C281.094 334.053 280.584 334.563 279.958 334.563C279.331 334.563 278.821 334.053 278.821 333.426C278.821 332.8 279.331 332.29 279.958 332.29Z" fill="white"/>
<path d="M333.744 351.362C333.744 349.787 332.463 348.506 330.888 348.506C329.314 348.506 328.033 349.787 328.033 351.362C328.033 352.138 328.345 352.842 328.85 353.358C328.346 353.873 328.033 354.577 328.033 355.354C328.033 355.828 328.418 356.213 328.892 356.213C329.367 356.213 329.752 355.828 329.752 355.354C329.752 354.727 330.262 354.217 330.888 354.217C331.515 354.217 332.025 354.727 332.025 355.354C332.025 355.828 332.41 356.213 332.884 356.213C333.359 356.213 333.744 355.828 333.744 355.354C333.744 354.577 333.431 353.873 332.926 353.358C333.431 352.842 333.744 352.138 333.744 351.362ZM330.888 350.225C331.515 350.225 332.025 350.735 332.025 351.362C332.025 351.988 331.515 352.498 330.888 352.498C330.262 352.498 329.752 351.988 329.752 351.362C329.752 350.735 330.262 350.225 330.888 350.225Z" fill="white"/>
<path d="M307.365 352.571L307.708 352.221L307.365 351.872C306.947 351.445 306.69 350.865 306.69 350.225C306.69 348.927 307.748 347.87 309.046 347.87C310.344 347.87 311.401 348.927 311.401 350.225C311.401 350.865 311.144 351.445 310.727 351.872L310.384 352.222L310.727 352.571C311.144 352.998 311.401 353.578 311.401 354.217C311.401 354.416 311.24 354.577 311.042 354.577C310.843 354.577 310.682 354.416 310.682 354.217C310.682 353.315 309.949 352.581 309.046 352.581C308.143 352.581 307.409 353.315 307.409 354.217C307.409 354.416 307.248 354.577 307.05 354.577C306.851 354.577 306.69 354.416 306.69 354.217C306.69 353.578 306.947 352.998 307.365 352.571ZM310.682 350.225C310.682 349.323 309.948 348.589 309.046 348.589C308.143 348.589 307.409 349.323 307.409 350.225C307.409 351.128 308.143 351.862 309.046 351.862C309.948 351.862 310.682 351.128 310.682 350.225Z" stroke="black"/>
<path d="M309.046 343.101C304.567 343.101 300.923 346.745 300.923 351.223C300.923 355.702 304.567 359.345 309.046 359.345C313.524 359.345 317.168 355.702 317.168 351.223C317.168 346.745 313.524 343.101 309.046 343.101ZM309.046 357.627C305.515 357.627 302.642 354.754 302.642 351.223C302.642 347.693 305.515 344.82 309.046 344.82C312.576 344.82 315.449 347.693 315.449 351.223C315.449 354.754 312.577 357.627 309.046 357.627Z" fill="#3F3356"/>
<path d="M342.3 327.561C342.3 323.082 338.657 319.439 334.178 319.439C332.388 319.439 330.731 320.023 329.387 321.008C328.71 320.229 327.991 319.478 327.238 318.775C326.892 318.451 326.348 318.469 326.023 318.816C325.699 319.163 325.717 319.706 326.064 320.031C326.783 320.703 327.469 321.42 328.115 322.165C326.836 323.601 326.056 325.491 326.056 327.561C326.056 332.039 329.7 335.683 334.178 335.683C334.294 335.683 334.409 335.679 334.523 335.674C334.794 337.245 334.932 338.851 334.932 340.457C334.932 342.019 334.801 343.579 334.544 345.11C333.445 344.553 332.203 344.237 330.888 344.237C326.41 344.237 322.766 347.881 322.766 352.359C322.766 355.552 324.618 358.319 327.304 359.645C322.029 365.232 314.688 368.415 306.974 368.415C299.714 368.415 292.834 365.645 287.601 360.615C282.589 355.797 279.588 349.392 279.091 342.5C279.375 342.53 279.665 342.546 279.958 342.546C284.436 342.546 288.08 338.903 288.08 334.424C288.08 330.872 285.786 327.846 282.602 326.747C284.626 323.158 287.43 320.05 290.79 317.66C290.894 318.231 291.279 318.717 291.831 318.942L306.324 324.855C306.534 324.941 306.754 324.983 306.974 324.983C307.194 324.983 307.414 324.941 307.623 324.855L316.599 321.193V324.339C314.71 324.737 313.287 326.416 313.287 328.421C313.287 329.446 313.659 330.386 314.275 331.113C313.826 331.758 313.58 332.522 313.58 333.321V338.311C313.58 339.258 314.351 340.029 315.299 340.029H319.617C320.565 340.029 321.336 339.258 321.336 338.311V333.321C321.336 332.519 321.091 331.756 320.642 331.111C321.257 330.385 321.629 329.446 321.629 328.421C321.629 326.416 320.206 324.737 318.317 324.34V320.492L322.117 318.942C322.766 318.677 323.186 318.052 323.186 317.35V306.536L329.326 304.031C329.976 303.766 330.396 303.141 330.396 302.439C330.396 301.738 329.976 301.113 329.326 300.848L307.623 291.993C307.204 291.822 306.743 291.822 306.325 291.993L284.621 300.848C283.971 301.113 283.552 301.738 283.552 302.439C283.552 303.141 283.971 303.766 284.621 304.031L306.325 312.886C306.534 312.971 306.754 313.014 306.974 313.014C307.194 313.014 307.414 312.971 307.623 312.886L316.599 309.224V319.337L306.974 323.264L292.48 317.35V311.108C292.48 310.633 292.095 310.249 291.621 310.249C291.146 310.249 290.762 310.633 290.762 311.108V315.598C286.621 318.304 283.21 322.012 280.86 326.353C280.564 326.32 280.263 326.302 279.957 326.302C275.479 326.302 271.835 329.946 271.835 334.424C271.835 337.989 274.144 341.022 277.344 342.112C277.757 349.623 280.966 356.621 286.41 361.854C291.964 367.193 299.267 370.133 306.974 370.133C315.413 370.133 323.433 366.545 329.063 360.272C329.65 360.407 330.261 360.481 330.888 360.481C335.367 360.481 339.01 356.838 339.01 352.359C339.01 349.865 337.88 347.631 336.105 346.14C336.466 344.278 336.651 342.368 336.651 340.456C336.651 338.767 336.506 337.076 336.224 335.421C339.715 334.513 342.3 331.333 342.3 327.561ZM319.617 338.31H318.604V335.732C318.604 335.258 318.219 334.873 317.745 334.873C317.27 334.873 316.885 335.258 316.885 335.732V338.31H315.299V333.321C315.299 332.909 315.416 332.512 315.632 332.17C316.184 332.44 316.804 332.592 317.458 332.592C318.112 332.592 318.732 332.44 319.284 332.171C319.5 332.512 319.617 332.907 319.617 333.321V338.31H319.617ZM319.911 328.421C319.911 329.773 318.811 330.874 317.458 330.874C316.106 330.874 315.006 329.773 315.006 328.421C315.006 327.069 316.106 325.969 317.458 325.969C318.811 325.969 319.911 327.069 319.911 328.421ZM306.974 311.295L285.27 302.439L306.974 293.584L328.677 302.439L317.105 307.161L304.998 301.828C304.564 301.637 304.057 301.834 303.865 302.269C303.674 302.703 303.871 303.21 304.305 303.401L314.892 308.064L306.974 311.295ZM318.318 308.523L321.468 307.238V317.35L318.318 318.636V308.523H318.318ZM273.554 334.424C273.554 330.893 276.427 328.021 279.958 328.021C283.488 328.021 286.361 330.893 286.361 334.424C286.361 337.955 283.488 340.828 279.958 340.828C276.427 340.828 273.554 337.955 273.554 334.424ZM337.292 352.359C337.292 355.89 334.419 358.763 330.888 358.763C327.358 358.763 324.485 355.89 324.485 352.359C324.485 348.828 327.358 345.956 330.888 345.956C334.419 345.956 337.292 348.828 337.292 352.359ZM334.178 333.964C330.648 333.964 327.775 331.092 327.775 327.561C327.775 324.03 330.648 321.157 334.178 321.157C337.709 321.157 340.582 324.03 340.582 327.561C340.582 331.092 337.709 333.964 334.178 333.964Z" fill="#3F3356"/>
<path d="M337.034 326.563C337.034 324.988 335.753 323.708 334.178 323.708C332.604 323.708 331.323 324.989 331.323 326.563C331.323 327.339 331.635 328.044 332.14 328.559C331.636 329.074 331.323 329.778 331.323 330.555C331.323 331.029 331.708 331.414 332.182 331.414C332.657 331.414 333.042 331.029 333.042 330.555C333.042 329.928 333.552 329.418 334.178 329.418C334.805 329.418 335.315 329.928 335.315 330.555C335.315 331.029 335.7 331.414 336.174 331.414C336.649 331.414 337.034 331.029 337.034 330.555C337.034 329.778 336.721 329.074 336.216 328.559C336.721 328.044 337.034 327.339 337.034 326.563ZM334.178 325.426C334.805 325.426 335.315 325.936 335.315 326.563C335.315 327.19 334.805 327.699 334.178 327.699C333.552 327.699 333.042 327.19 333.042 326.563C333.042 325.936 333.552 325.426 334.178 325.426Z" fill="white"/>
</g>
<path d="M322 68.8942C322 66.0434 320.713 63.3716 318.521 61.5933C318.616 61.1381 318.664 60.7007 318.664 60.2703C318.664 56.7191 316.038 53.7698 312.626 53.2618C312.704 52.8539 312.742 52.4537 312.742 52.0551C312.742 48.2744 309.762 45.1854 306.029 44.9892C305.968 44.9791 305.906 44.9706 305.842 44.9706C305.811 44.9706 305.78 44.9745 305.749 44.9752C305.718 44.9745 305.687 44.9706 305.656 44.9706C305.3 44.9706 304.943 45.0024 304.565 45.0683C303.909 41.59 300.879 38.9998 297.247 38.9998C293.128 38.9998 289.777 42.3508 289.777 46.4705V97.592C289.777 102.806 294.018 107.047 299.231 107.047C302.69 107.047 305.829 105.175 307.487 102.203C307.859 102.283 308.216 102.333 308.574 102.356C310.825 102.5 313.018 101.762 314.721 100.268C316.424 98.7731 317.443 96.7048 317.59 94.4433C317.652 93.5011 317.546 92.5557 317.278 91.622C320.222 89.535 321.952 86.2305 321.952 82.6095C321.952 79.9843 321.007 77.4638 319.28 75.456C321.017 73.6971 322 71.3441 322 68.8942ZM319.627 82.611C319.627 85.313 318.4 87.7916 316.296 89.4505C314.739 86.9719 311.976 85.389 308.985 85.389C308.343 85.389 307.822 85.9102 307.822 86.5523C307.822 87.1944 308.343 87.7156 308.985 87.7156C311.576 87.7156 313.936 89.3388 314.865 91.7546C315.183 92.5984 315.324 93.4522 315.269 94.2937C315.162 95.9347 314.423 97.4354 313.187 98.5196C311.951 99.6045 310.363 100.144 308.726 100.035C308.265 100.005 307.789 99.9054 307.227 99.7232C306.653 99.5355 306.032 99.8193 305.795 100.375C304.675 103.015 302.097 104.721 299.23 104.721C295.3 104.721 292.102 101.523 292.102 97.5928V46.4712C292.102 43.6351 294.41 41.3271 297.246 41.3271C299.881 41.3271 302.049 43.314 302.332 45.909C300.198 47.1312 298.755 49.426 298.755 52.0558C298.755 52.6988 299.276 53.2191 299.918 53.2191C300.56 53.2191 301.082 52.6988 301.082 52.0558C301.082 49.4632 303.167 47.3522 305.747 47.3018C308.327 47.3522 310.413 49.4632 310.413 52.0551C310.413 52.5375 310.322 53.0369 310.134 53.5836C310.09 53.7124 310.069 53.8473 310.072 53.983C310.072 54.0148 310.074 54.0443 310.077 54.0722C310.072 54.0885 310.069 54.0994 310.069 54.0994C309.978 54.46 310.065 54.8431 310.303 55.1293C310.541 55.4155 310.896 55.5706 311.273 55.5465C311.353 55.5411 311.434 55.531 311.577 55.5108C314.2 55.5108 316.335 57.6459 316.335 60.2695C316.335 60.7131 316.256 61.1684 316.086 61.7035C315.928 62.1959 316.115 62.7334 316.544 63.0219C318.432 64.293 319.576 66.3792 319.657 68.6383C319.657 68.6414 319.656 68.6445 319.656 68.6476C319.656 72.5485 316.483 75.7228 312.582 75.7228C308.681 75.7228 305.507 72.5485 305.507 68.6476C305.507 68.0047 304.986 67.4843 304.343 67.4843C303.701 67.4843 303.18 68.0047 303.18 68.6476C303.18 73.832 307.397 78.0494 312.582 78.0494C314.31 78.0494 315.924 77.5724 317.317 76.7558C318.806 78.3766 319.627 80.4496 319.627 82.611Z" fill="#238FCC" fill-opacity="0.5"/>
<path d="M319.041 68.8942C319.041 66.0434 317.755 63.3716 315.562 61.5933C315.658 61.1381 315.705 60.7007 315.705 60.2703C315.705 56.7191 313.079 53.7698 309.668 53.2618C309.746 52.8539 309.783 52.4537 309.783 52.0551C309.783 48.2744 306.803 45.1854 303.071 44.9892C303.01 44.9791 302.948 44.9706 302.883 44.9706C302.852 44.9706 302.822 44.9745 302.79 44.9752C302.759 44.9745 302.729 44.9706 302.697 44.9706C302.342 44.9706 301.984 45.0024 301.607 45.0683C300.951 41.59 297.921 38.9998 294.288 38.9998C290.169 38.9998 286.818 42.3508 286.818 46.4705V97.592C286.818 102.806 291.059 107.047 296.273 107.047C299.731 107.047 302.871 105.175 304.529 102.203C304.9 102.283 305.257 102.333 305.615 102.356C307.867 102.5 310.059 101.762 311.762 100.268C313.465 98.7731 314.484 96.7048 314.632 94.4433C314.693 93.5011 314.587 92.5557 314.319 91.622C317.263 89.535 318.993 86.2305 318.993 82.6095C318.993 79.9843 318.048 77.4638 316.322 75.456C318.059 73.6971 319.041 71.3441 319.041 68.8942ZM316.668 82.611C316.668 85.313 315.441 87.7916 313.337 89.4505C311.78 86.9719 309.018 85.389 306.026 85.389C305.384 85.389 304.863 85.9102 304.863 86.5523C304.863 87.1944 305.384 87.7156 306.026 87.7156C308.617 87.7156 310.977 89.3388 311.906 91.7546C312.224 92.5984 312.366 93.4522 312.311 94.2937C312.203 95.9347 311.464 97.4354 310.228 98.5196C308.992 99.6045 307.405 100.144 305.767 100.035C305.307 100.005 304.831 99.9054 304.268 99.7232C303.694 99.5355 303.073 99.8193 302.837 100.375C301.716 103.015 299.139 104.721 296.272 104.721C292.341 104.721 289.144 101.523 289.144 97.5928V46.4712C289.144 43.6351 291.451 41.3271 294.287 41.3271C296.922 41.3271 299.091 43.314 299.373 45.909C297.24 47.1312 295.796 49.426 295.796 52.0558C295.796 52.6988 296.317 53.2191 296.96 53.2191C297.602 53.2191 298.123 52.6988 298.123 52.0558C298.123 49.4632 300.208 47.3522 302.789 47.3018C305.369 47.3522 307.454 49.4632 307.454 52.0551C307.454 52.5375 307.363 53.0369 307.176 53.5836C307.132 53.7124 307.111 53.8473 307.113 53.983C307.114 54.0148 307.115 54.0443 307.118 54.0722C307.114 54.0885 307.111 54.0994 307.111 54.0994C307.019 54.46 307.106 54.8431 307.344 55.1293C307.582 55.4155 307.937 55.5706 308.314 55.5465C308.395 55.5411 308.476 55.531 308.618 55.5108C311.242 55.5108 313.377 57.6459 313.377 60.2695C313.377 60.7131 313.297 61.1684 313.127 61.7035C312.97 62.1959 313.157 62.7334 313.585 63.0219C315.473 64.293 316.617 66.3792 316.698 68.6383C316.698 68.6414 316.698 68.6445 316.698 68.6476C316.698 72.5485 313.524 75.7228 309.623 75.7228C305.722 75.7228 302.548 72.5485 302.548 68.6476C302.548 68.0047 302.027 67.4843 301.385 67.4843C300.743 67.4843 300.222 68.0047 300.222 68.6476C300.222 73.832 304.439 78.0494 309.623 78.0494C311.351 78.0494 312.966 77.5724 314.359 76.7558C315.848 78.3766 316.668 80.4496 316.668 82.611Z" fill="black"/>
<path d="M275.752 39.0007C272.119 39.0007 269.09 41.591 268.435 45.0693C268.056 45.0034 267.699 44.9716 267.344 44.9716C267.313 44.9716 267.282 44.9754 267.251 44.9762C267.219 44.9754 267.189 44.9716 267.157 44.9716C267.093 44.9716 267.031 44.9801 266.97 44.9902C263.237 45.1864 260.258 48.2753 260.258 52.056C260.258 52.4547 260.296 52.8548 260.374 53.2628C256.962 53.7707 254.336 56.7201 254.336 60.2713C254.336 60.7009 254.384 61.1383 254.479 61.5943C252.287 63.3726 251 66.0443 251 68.8952C251 71.3451 251.982 73.6981 253.718 75.4585C251.991 77.4664 251.046 79.9869 251.046 82.612C251.046 86.233 252.776 89.5368 255.72 91.6245C255.451 92.5582 255.346 93.5036 255.408 94.4467C255.555 96.7073 256.574 98.7757 258.277 100.27C259.98 101.765 262.166 102.503 264.424 102.359C264.777 102.335 265.136 102.284 265.509 102.204C267.168 105.178 270.307 107.049 273.766 107.049C278.979 107.049 283.22 102.808 283.22 97.5945V46.4714C283.222 42.3518 279.871 39.0007 275.752 39.0007ZM280.895 97.593C280.895 101.523 277.698 104.721 273.767 104.721C270.9 104.721 268.323 103.015 267.203 100.375C267.016 99.9351 266.588 99.666 266.132 99.666C266.013 99.666 265.891 99.6838 265.772 99.7234C265.21 99.9056 264.734 100.005 264.272 100.035C262.629 100.143 261.048 99.6039 259.812 98.5197C258.576 97.4356 257.837 95.9349 257.73 94.2939C257.671 93.3943 257.827 92.4822 258.194 91.5834C258.199 91.5702 258.198 91.5555 258.202 91.5423C259.243 89.1723 261.479 87.7011 264.094 87.7011C264.737 87.7011 265.257 87.1799 265.257 86.5378C265.257 85.8956 264.737 85.3745 264.094 85.3745C261.04 85.3745 258.277 86.931 256.689 89.4375C254.595 87.7786 253.372 85.3062 253.372 82.6113C253.372 80.4498 254.194 78.3768 255.682 76.7568C257.075 77.5734 258.69 78.0503 260.418 78.0503C265.602 78.0503 269.82 73.833 269.82 68.6486C269.82 68.0056 269.299 67.4853 268.657 67.4853C268.014 67.4853 267.493 68.0056 267.493 68.6486C267.493 72.5495 264.32 75.7237 260.418 75.7237C256.516 75.7237 253.343 72.5495 253.343 68.6486C253.343 68.647 253.342 68.6455 253.342 68.6439C253.422 66.3832 254.566 64.2955 256.454 63.0229C256.883 62.7344 257.069 62.1977 256.913 61.7052C256.742 61.1693 256.663 60.7141 256.663 60.2705C256.663 57.6523 258.789 55.5203 261.467 55.5203C261.473 55.5203 261.479 55.5203 261.484 55.5203C261.564 55.5312 261.644 55.5413 261.726 55.5467C262.102 55.57 262.461 55.4141 262.698 55.1264C262.936 54.8379 263.022 54.4532 262.926 54.0918C262.926 54.091 262.924 54.081 262.92 54.0678C262.922 54.0406 262.925 54.0158 262.925 53.9941C262.929 53.8545 262.908 53.7157 262.863 53.5838C262.675 53.0355 262.584 52.5353 262.584 52.0545C262.584 49.4627 264.669 47.3509 267.25 47.3013C269.831 47.3517 271.915 49.4627 271.915 52.0553C271.915 52.6982 272.436 53.2186 273.079 53.2186C273.722 53.2186 274.242 52.6982 274.242 52.0553C274.242 49.4254 272.799 47.1306 270.665 45.9084C270.947 43.3135 273.116 41.3266 275.751 41.3266C278.587 41.3266 280.894 43.6345 280.894 46.4707V97.593H280.895Z" fill="black"/>
<path d="M244.192 69.6765C244.29 69.5789 244.29 69.4206 244.192 69.323L242.601 67.732C242.503 67.6344 242.345 67.6344 242.247 67.732C242.15 67.8296 242.15 67.9879 242.247 68.0855L243.662 69.4998L242.247 70.914C242.15 71.0116 242.15 71.1699 242.247 71.2675C242.345 71.3652 242.503 71.3652 242.601 71.2675L244.192 69.6765ZM122.998 69.7498H124.511V69.2498H122.998V69.7498ZM127.536 69.7498H130.562V69.2498H127.536V69.7498ZM133.587 69.7498H136.612V69.2498H133.587V69.7498ZM139.638 69.7498H142.663V69.2498H139.638V69.7498ZM145.689 69.7498H148.714V69.2498H145.689V69.7498ZM151.74 69.7498H154.765V69.2498H151.74V69.7498ZM157.79 69.7498H160.816V69.2498H157.79V69.7498ZM163.841 69.7498H166.867V69.2498H163.841V69.7498ZM169.892 69.7498H172.918V69.2498H169.892V69.7498ZM175.943 69.7498H178.968V69.2498H175.943V69.7498ZM181.994 69.7498H185.019V69.2498H181.994V69.7498ZM188.045 69.7498H191.07V69.2498H188.045V69.7498ZM194.096 69.7498H197.121V69.2498H194.096V69.7498ZM200.146 69.7498H203.172V69.2498H200.146V69.7498ZM206.197 69.7498H209.223V69.2498H206.197V69.7498ZM212.248 69.7498H215.274V69.2498H212.248V69.7498ZM218.299 69.7498H221.324V69.2498H218.299V69.7498ZM224.35 69.7498H227.375V69.2498H224.35V69.7498ZM230.401 69.7498H233.426V69.2498H230.401V69.7498ZM236.452 69.7498H239.477V69.2498H236.452V69.7498ZM242.502 69.7498H244.015V69.2498H242.502V69.7498ZM244.369 69.8533C244.564 69.658 244.564 69.3415 244.369 69.1462L241.187 65.9642C240.991 65.769 240.675 65.769 240.48 65.9642C240.284 66.1595 240.284 66.4761 240.48 66.6713L243.308 69.4998L240.48 72.3282C240.284 72.5234 240.284 72.84 240.48 73.0353C240.675 73.2306 240.991 73.2306 241.187 73.0353L244.369 69.8533ZM122.998 69.9998H124.511V68.9998H122.998V69.9998ZM127.536 69.9998H130.562V68.9998H127.536V69.9998ZM133.587 69.9998H136.612V68.9998H133.587V69.9998ZM139.638 69.9998H142.663V68.9998H139.638V69.9998ZM145.689 69.9998H148.714V68.9998H145.689V69.9998ZM151.74 69.9998H154.765V68.9998H151.74V69.9998ZM157.79 69.9998H160.816V68.9998H157.79V69.9998ZM163.841 69.9998H166.867V68.9998H163.841V69.9998ZM169.892 69.9998H172.918V68.9998H169.892V69.9998ZM175.943 69.9998H178.968V68.9998H175.943V69.9998ZM181.994 69.9998H185.019V68.9998H181.994V69.9998ZM188.045 69.9998H191.07V68.9998H188.045V69.9998ZM194.096 69.9998H197.121V68.9998H194.096V69.9998ZM200.146 69.9998H203.172V68.9998H200.146V69.9998ZM206.197 69.9998H209.223V68.9998H206.197V69.9998ZM212.248 69.9998H215.274V68.9998H212.248V69.9998ZM218.299 69.9998H221.324V68.9998H218.299V69.9998ZM224.35 69.9998H227.375V68.9998H224.35V69.9998ZM230.401 69.9998H233.426V68.9998H230.401V69.9998ZM236.452 69.9998H239.477V68.9998H236.452V69.9998ZM242.502 69.9998H244.015V68.9998H242.502V69.9998Z" fill="#808285"/>
<path d="M288.114 125.76C288.017 125.663 287.858 125.663 287.761 125.76L286.17 127.351C286.072 127.449 286.072 127.607 286.17 127.705C286.267 127.803 286.426 127.803 286.523 127.705L287.938 126.291L289.352 127.705C289.449 127.803 289.608 127.803 289.705 127.705C289.803 127.607 289.803 127.449 289.705 127.351L288.114 125.76ZM288.188 236.008V234.479H287.688V236.008H288.188ZM288.188 231.421V228.364H287.688V231.421H288.188ZM288.188 225.306V222.249H287.688V225.306H288.188ZM288.188 219.191V216.134H287.688V219.191H288.188ZM288.188 213.076V210.019H287.688V213.076H288.188ZM288.188 206.961V203.904H287.688V206.961H288.188ZM288.188 200.846V197.789H287.688V200.846H288.188ZM288.188 194.731V191.674H287.688V194.731H288.188ZM288.188 188.616V185.559H287.688V188.616H288.188ZM288.188 182.501V179.444H287.688V182.501H288.188ZM288.188 176.386V173.329H287.688V176.386H288.188ZM288.188 170.271V167.214H287.688V170.271H288.188ZM288.188 164.156V161.099H287.688V164.156H288.188ZM288.188 158.041V154.984H287.688V158.041H288.188ZM288.188 151.926V148.869H287.688V151.926H288.188ZM288.188 145.811V142.754H287.688V145.811H288.188ZM288.188 139.696V136.638H287.688V139.696H288.188ZM288.188 133.581V130.523H287.688V133.581H288.188ZM288.188 127.466V125.937H287.688V127.466H288.188ZM288.291 125.584C288.096 125.388 287.779 125.388 287.584 125.584L284.402 128.766C284.207 128.961 284.207 129.278 284.402 129.473C284.597 129.668 284.914 129.668 285.109 129.473L287.938 126.644L290.766 129.473C290.961 129.668 291.278 129.668 291.473 129.473C291.668 129.278 291.668 128.961 291.473 128.766L288.291 125.584ZM288.438 236.008V234.479H287.438V236.008H288.438ZM288.438 231.421V228.364H287.438V231.421H288.438ZM288.438 225.306V222.249H287.438V225.306H288.438ZM288.438 219.191V216.134H287.438V219.191H288.438ZM288.438 213.076V210.019H287.438V213.076H288.438ZM288.438 206.961V203.904H287.438V206.961H288.438ZM288.438 200.846V197.789H287.438V200.846H288.438ZM288.438 194.731V191.674H287.438V194.731H288.438ZM288.438 188.616V185.559H287.438V188.616H288.438ZM288.438 182.501V179.444H287.438V182.501H288.438ZM288.438 176.386V173.329H287.438V176.386H288.438ZM288.438 170.271V167.214H287.438V170.271H288.438ZM288.438 164.156V161.099H287.438V164.156H288.438ZM288.438 158.041V154.984H287.438V158.041H288.438ZM288.438 151.926V148.869H287.438V151.926H288.438ZM288.438 145.811V142.754H287.438V145.811H288.438ZM288.438 139.696V136.638H287.438V139.696H288.438ZM288.438 133.581V130.523H287.438V133.581H288.438ZM288.438 127.466V125.937H287.438V127.466H288.438Z" fill="#808285"/>
<line x1="62.5" y1="345.004" x2="62.5" y2="137.995" stroke="#808285" stroke-dasharray="4 4"/>
<line x1="255" y1="345.5" x2="67" y2="345.5" stroke="#808285" stroke-dasharray="3 3"/>
<line x1="536.5" y1="124" x2="536.5" y2="287" stroke="#808285" stroke-dasharray="4 4"/>
<line x1="334" y1="72.4998" x2="450" y2="72.4998" stroke="#808285" stroke-dasharray="3 3"/>
<line x1="198" y1="238" x2="284.003" y2="238.558" stroke="#808285" stroke-dasharray="3 3"/>
<line x1="361.993" y1="335.493" x2="509.007" y2="335.493" stroke="#808285" stroke-dasharray="3 3"/>
<path opacity="0.8" d="M571.624 299.006L537.395 257.809H537.308C535.847 256.114 533.894 254.905 531.715 254.346C529.536 253.788 527.236 253.907 525.128 254.687C523.02 255.467 521.205 256.871 519.93 258.707C518.655 260.544 517.981 262.725 518 264.954V345.076C517.993 347.221 518.626 349.32 519.82 351.11C521.013 352.9 522.714 354.301 524.708 355.138C526.703 355.974 528.903 356.209 531.031 355.812C533.16 355.415 535.123 354.404 536.673 352.907H536.818L571.624 311.009C573.151 309.377 574 307.233 574 305.008C574 302.782 573.151 300.639 571.624 299.006Z" fill="#19B89C" fill-opacity="0.4"/>
<path opacity="0.8" d="M546.624 298.006L512.395 256.809H512.308C510.847 255.114 508.894 253.905 506.715 253.346C504.536 252.788 502.236 252.907 500.128 253.687C498.02 254.467 496.205 255.871 494.93 257.707C493.655 259.544 492.981 261.725 493 263.954V344.076C492.993 346.221 493.626 348.32 494.82 350.11C496.013 351.9 497.714 353.301 499.708 354.138C501.703 354.974 503.902 355.209 506.031 354.812C508.16 354.415 510.123 353.404 511.673 351.907H511.818L546.624 310.009C548.151 308.377 549 306.233 549 304.008C549 301.782 548.151 299.639 546.624 298.006Z" fill="#238FCC" fill-opacity="0.2"/>
<path d="M509.791 109.353V102.306H518.385H525.453V100.781H516.859H508.266V107.828C508.266 110.068 509.366 112.051 511.054 113.268C510.26 112.166 509.791 110.815 509.791 109.353Z" fill="#19B89C" fill-opacity="0.5"/>
<path d="M509.125 100.502C509.125 96.7995 512.126 93.7986 515.828 93.7986H517.719H519.609C521.847 93.7986 523.827 94.8958 525.044 96.5804C524.103 94.0165 521.64 92.1873 518.75 92.1873H516.859H514.969C511.267 92.1873 508.266 95.1882 508.266 98.8904V100.781H509.125V100.502Z" fill="#AFB9D2"/>
<path d="M544.359 66.406C546.259 66.406 547.797 67.9443 547.797 69.8435C547.797 71.7427 546.259 73.281 544.359 73.281C542.46 73.281 540.922 71.7427 540.922 69.8435C540.922 67.9443 542.46 66.406 544.359 66.406Z" fill="#FF7979" fill-opacity="0.5"/>
<path d="M541.523 71.7628C541.523 69.8636 543.062 68.3253 544.961 68.3253C546.138 68.3253 547.176 68.9173 547.796 69.8193C547.782 67.9314 546.25 66.406 544.359 66.406C542.46 66.406 540.922 67.9443 540.922 69.8435C540.922 70.5652 541.145 71.2341 541.525 71.7871C541.525 71.7788 541.523 71.7709 541.523 71.7628Z" fill="#D65B5B"/>
<path d="M516.313 37.5597L542.874 49.7053L544.359 48.3076L516.282 35.4685L487.641 48.3076L489.26 49.687L516.313 37.5597Z" fill="#5B5A57"/>
<path d="M535.878 52.3873C535.861 52.3801 535.844 52.3737 535.827 52.3667C535.821 53.7161 535.826 55.0215 535.827 56.3341L535.855 56.3078C535.854 55.0356 535.857 53.7448 535.878 52.3873Z" fill="#5B5A57"/>
<path d="M497.603 61.6858C497.611 60.0173 497.597 58.3344 497.584 56.6514C497.571 54.7075 497.559 52.7636 497.588 50.8489C509.32 45.9166 521.912 45.4632 535.838 50.9268C535.841 50.7178 535.843 50.5084 535.846 50.2965C521.378 44.2567 508.348 44.5746 496.234 49.6673C496.205 51.582 496.217 53.5259 496.231 55.4698C496.248 57.6767 496.267 59.8835 496.234 62.0578C496.69 61.9299 497.147 61.806 497.603 61.6858Z" fill="#414A56"/>
<path d="M540.922 97.3435H537.484V100.781H540.922V97.3435Z" fill="black"/>
<path d="M540.922 92.1873H537.484V95.6248H540.922V92.1873Z" fill="black"/>
<path d="M540.922 87.031H537.484V90.4685H540.922V87.031Z" fill="black"/>
<path d="M540.922 81.8748H537.484V85.3123H540.922V81.8748Z" fill="black"/>
<path d="M501.391 97.3435H497.953V100.781H501.391V97.3435Z" fill="black"/>
<path d="M501.391 92.1873H497.953V95.6248H501.391V92.1873Z" fill="black"/>
<path d="M501.391 87.031H497.953V90.4685H501.391V87.031Z" fill="black"/>
<path d="M501.391 81.8748H497.953V85.3123H501.391V81.8748Z" fill="black"/>
<path d="M535.828 57.1936C535.599 57.1936 535.371 57.1029 535.202 56.9231C534.876 56.5773 534.893 56.0335 535.239 55.7083L542.84 48.5576L516.278 36.412L489.233 48.5356L496.379 54.6232C496.414 54.6293 496.448 54.6375 496.482 54.648C496.936 54.7869 497.192 55.2674 497.053 55.7212L497.015 55.8449C496.93 56.1216 496.712 56.3373 496.434 56.4183C496.156 56.4998 495.856 56.4353 495.636 56.2476L487.083 48.9618C486.859 48.7707 486.748 48.4778 486.79 48.186C486.832 47.8942 487.02 47.6441 487.289 47.5236L515.93 34.6845C516.156 34.5835 516.414 34.5843 516.639 34.6871L544.717 47.5262C544.977 47.6451 545.161 47.8859 545.207 48.1683C545.254 48.4507 545.157 48.7377 544.948 48.9337L536.416 56.9602C536.251 57.1163 536.039 57.1936 535.828 57.1936Z" fill="black"/>
<path d="M496.234 62.9171C496.047 62.9171 495.862 62.8557 495.71 62.7387C495.495 62.5733 495.371 62.316 495.375 62.0448C495.406 59.9495 495.389 57.7825 495.373 55.6868L495.371 55.4764C495.359 53.7745 495.344 51.6572 495.375 49.6542C495.38 49.313 495.587 49.0072 495.901 48.8751C502.101 46.2686 508.487 44.947 514.881 44.947C521.77 44.947 528.935 46.48 536.177 49.5033C536.502 49.6387 536.711 49.958 536.705 50.3095C536.679 52.0269 536.682 53.6626 536.685 55.2446L536.687 56.3332C536.69 58.0876 536.685 59.999 536.625 62.0824C536.617 62.3509 536.484 62.6005 536.265 62.7567C536.047 62.9129 535.767 62.9578 535.511 62.8784C529.988 61.1674 524.282 60.2081 518.551 60.0273C517.869 60.0058 517.176 59.995 516.491 59.995C510.036 59.995 503.299 60.9673 496.467 62.8851C496.39 62.9066 496.312 62.9171 496.234 62.9171ZM497.086 50.2446C497.066 52.058 497.079 53.9306 497.09 55.4635L497.092 55.6734C497.105 57.4014 497.119 59.1776 497.106 60.9281C503.712 59.168 510.227 58.2763 516.491 58.2763C517.194 58.2763 517.905 58.2874 518.605 58.3094C524.116 58.4834 529.603 59.3577 534.934 60.9104C534.968 59.279 534.971 57.7562 534.968 56.3356L534.966 55.2477C534.964 53.8385 534.961 52.3866 534.979 50.8679C528.131 48.0791 521.372 46.6654 514.881 46.6654C508.895 46.6656 502.911 47.8696 497.086 50.2446Z" fill="black"/>
<path d="M544.359 67.2654C543.885 67.2654 543.5 66.8806 543.5 66.406V49.2185C543.5 48.744 543.885 48.3591 544.359 48.3591C544.834 48.3591 545.219 48.744 545.219 49.2185V66.406C545.219 66.8806 544.834 67.2654 544.359 67.2654Z" fill="black"/>
<path d="M544.359 74.1404C541.99 74.1404 540.062 72.2128 540.062 69.8435C540.062 67.4742 541.99 65.5466 544.359 65.5466C546.729 65.5466 548.656 67.4742 548.656 69.8435C548.656 72.2128 546.729 74.1404 544.359 74.1404ZM544.359 67.2654C542.938 67.2654 541.781 68.4219 541.781 69.8435C541.781 71.2651 542.938 72.4216 544.359 72.4216C545.781 72.4216 546.938 71.2651 546.938 69.8435C546.938 68.4219 545.781 67.2654 544.359 67.2654Z" fill="black"/>
<path d="M518.75 115.39C518.275 115.39 517.891 115.006 517.891 114.531C517.891 114.056 518.275 113.672 518.75 113.672C521.972 113.672 524.594 111.05 524.594 107.828V98.8904C524.594 95.6681 521.972 93.0466 518.75 93.0466H514.969C511.746 93.0466 509.125 95.6681 509.125 98.8904V107.828C509.125 111.05 511.746 113.672 514.969 113.672C515.443 113.672 515.828 114.056 515.828 114.531C515.828 115.006 515.443 115.39 514.969 115.39C510.799 115.39 507.406 111.998 507.406 107.828V98.8904C507.406 94.7203 510.799 91.3279 514.969 91.3279H518.75C522.92 91.3279 526.312 94.7203 526.312 98.8904V107.828C526.312 111.998 522.92 115.39 518.75 115.39Z" fill="black"/>
<path d="M525.453 101.64H508.266C507.791 101.64 507.406 101.256 507.406 100.781C507.406 100.306 507.791 99.9216 508.266 99.9216H525.453C525.928 99.9216 526.312 100.306 526.312 100.781C526.312 101.256 525.928 101.64 525.453 101.64Z" fill="black"/>
<path d="M516.859 101.64C516.385 101.64 516 101.256 516 100.781V97.3435C516 96.8688 516.385 96.4841 516.859 96.4841C517.334 96.4841 517.719 96.8688 517.719 97.3435V100.781C517.719 101.256 517.334 101.64 516.859 101.64Z" fill="black"/>
<path d="M516.859 93.0466C516.385 93.0466 516 92.662 516 92.1873V89.6091C516 86.766 518.313 84.4529 521.156 84.4529H528.031C529.927 84.4529 531.469 82.9108 531.469 81.0154C531.469 80.0965 531.111 79.2334 530.462 78.5844C529.813 77.9352 528.95 77.5779 528.031 77.5779H505.688C502.844 77.5779 500.531 75.2648 500.531 72.4216C500.531 71.0437 501.067 69.7488 502.041 68.7751C503.014 67.8015 504.31 67.2654 505.688 67.2654H514.281C516.177 67.2654 517.719 65.7233 517.719 63.8279V54.3748C517.719 53.9002 518.103 53.5154 518.578 53.5154C519.053 53.5154 519.438 53.9002 519.438 54.3748V63.8279C519.438 66.671 517.124 68.9841 514.281 68.9841H505.688C504.769 68.9841 503.905 69.3416 503.256 69.9905C502.607 70.6393 502.25 71.503 502.25 72.4216C502.25 74.3171 503.792 75.8591 505.688 75.8591H528.031C529.409 75.8591 530.704 76.3954 531.678 77.3691C532.651 78.3424 533.188 79.6373 533.188 81.0154C533.188 83.8585 530.874 86.1716 528.031 86.1716H521.156C519.261 86.1716 517.719 87.7137 517.719 89.6091V92.1873C517.719 92.662 517.334 93.0466 516.859 93.0466Z" fill="black"/>
<path d="M547.797 115.39H479.047C478.572 115.39 478.188 115.006 478.188 114.531C478.188 114.056 478.572 113.672 479.047 113.672H547.797C548.272 113.672 548.656 114.056 548.656 114.531C548.656 115.006 548.272 115.39 547.797 115.39Z" fill="black"/>
<defs>
<linearGradient id="paint0_linear" x1="129.5" y1="152.194" x2="53.8466" y2="253.009" gradientUnits="userSpaceOnUse">
<stop stop-color="#8CDBCD"/>
<stop offset="1" stop-color="#19B89C"/>
</linearGradient>
<linearGradient id="paint1_linear" x1="129.5" y1="152.194" x2="53.8466" y2="253.009" gradientUnits="userSpaceOnUse">
<stop stop-color="#8CDBCD"/>
<stop offset="1" stop-color="#19B89C"/>
</linearGradient>
<linearGradient id="paint2_linear" x1="304.587" y1="247.31" x2="219.472" y2="331.007" gradientUnits="userSpaceOnUse">
<stop stop-color="#5AABD9"/>
<stop offset="1" stop-color="#238FCC"/>
</linearGradient>
<clipPath id="clip0">
<rect x="77" y="179" width="105" height="105" fill="white"/>
</clipPath>
<clipPath id="clip1">
<rect x="262" y="287" width="88" height="88" fill="white"/>
</clipPath>
</defs>
</svg>
